<svg width="87" height="87" viewBox="0 0 87 87" fill="none" xmlns="http://www.w3.org/2000/svg">
<rect width="87" height="87" fill="#151515" fill-opacity="0.878431"/>
<path d="M38.8185 24.0173L46.6854 24.0098L46.7218 62.9658L38.8549 62.9733L38.8185 24.0173Z" fill="white"/>
<path d="M11 24.044L36.5658 24.0195L36.5727 31.4335L19.0072 31.4503L19.0101 34.5576L11.0098 34.5652L11 24.044Z" fill="white"/>
<path d="M11.011 35.8226L19.0113 35.8149L19.0147 39.493L36.5872 39.4761L36.5947 47.5188L19.0222 47.5357L19.0253 50.8163L11.025 50.824L11.011 35.8226Z" fill="white"/>
<path d="M11.0262 52.0669L19.0264 52.0592L19.0297 55.5783L36.6023 55.5615L36.6092 62.9755L11.0364 63L11.0262 52.0669Z" fill="white"/>
<path d="M56.91 53.6776L56.9186 62.9632L49.0517 62.9707L49.0153 24.0075L56.8823 24L56.9017 44.8329L57.3298 44.8325L66.4075 33.7317L75.4394 33.723L64.9175 46.386L76 62.9449L66.7857 62.9537L59.034 51.1826L56.91 53.6776Z" fill="white"/>
</svg>
